<svg width="31" height="31" viewBox="0 0 31 31" fill="none" xmlns="http://www.w3.org/2000/svg">
<path d="M18.8333 3.83333C18.3913 3.83333 17.9674 3.65774 17.6548 3.34518C17.3423 3.03262 17.1667 2.60869 17.1667 2.16667C17.1667 1.72464 17.3423 1.30072 17.6548 0.988155C17.9674 0.675595 18.3913 0.5 18.8333 0.5H28.8333C29.2754 0.5 29.6993 0.675595 30.0118 0.988155C30.3244 1.30072 30.5 1.72464 30.5 2.16667V12.1667C30.5 12.6087 30.3244 13.0326 30.0118 13.3452C29.6993 13.6577 29.2754 13.8333 28.8333 13.8333C28.3913 13.8333 27.9674 13.6577 27.6548 13.3452C27.3423 13.0326 27.1667 12.6087 27.1667 12.1667V6.19L11.6783 21.6783C11.364 21.9819 10.943 22.1499 10.506 22.1461C10.069 22.1423 9.65098 21.967 9.34197 21.658C9.03296 21.349 8.85767 20.931 8.85388 20.494C8.85008 20.057 9.01807 19.636 9.32167 19.3217L24.81 3.83333H18.8333ZM0.5 7.16667C0.5 6.28261 0.851189 5.43476 1.47631 4.80964C2.10143 4.18452 2.94928 3.83333 3.83333 3.83333H12.1667C12.6087 3.83333 13.0326 4.00893 13.3452 4.32149C13.6577 4.63405 13.8333 5.05797 13.8333 5.5C13.8333 5.94203 13.6577 6.36595 13.3452 6.67851C13.0326 6.99107 12.6087 7.16667 12.1667 7.16667H3.83333V27.1667H23.8333V18.8333C23.8333 18.3913 24.0089 17.9674 24.3215 17.6548C24.634 17.3423 25.058 17.1667 25.5 17.1667C25.942 17.1667 26.366 17.3423 26.6785 17.6548C26.9911 17.9674 27.1667 18.3913 27.1667 18.8333V27.1667C27.1667 28.0507 26.8155 28.8986 26.1904 29.5237C25.5652 30.1488 24.7174 30.5 23.8333 30.5H3.83333C2.94928 30.5 2.10143 30.1488 1.47631 29.5237C0.851189 28.8986 0.5 28.0507 0.5 27.1667V7.16667Z" fill="white"/>
</svg>
