<svg width="402" height="1020" viewBox="0 0 402 1020" fill="none" xmlns="http://www.w3.org/2000/svg">
<path d="M223.905 611.771L215.869 46.1237L184.5 0L153.159 46.1237L145.123 611.771L184.5 440.577L223.905 611.771Z" fill="url(#paint0_linear_303_17)"/>
<path d="M251.644 794.488L184.5 497.419L117.384 794.488C137.668 785.769 164.908 770.885 184.528 752.502C205.505 769.552 231.359 785.797 251.644 794.488ZM165.601 732.231C163.412 734.286 161.029 736.341 158.452 738.423L184.5 623.156L210.354 737.507C207.472 735.341 204.674 733.147 201.958 730.954L183.225 715.764L165.601 732.231Z" fill="url(#paint1_linear_303_17)"/>
<path d="M276.778 813.954C242.305 813.954 210.465 800.125 184.777 772.051H184.223C158.562 800.097 126.723 813.954 92.2223 813.954C57.7221 813.954 25.9098 797.348 0.221688 769.274H0L12.4977 836.585H146.619L160.197 1025.52C151.025 1032.74 145.123 1043.93 145.123 1056.54C145.123 1078.34 162.747 1096 184.5 1096C206.253 1096 223.877 1078.34 223.877 1056.54C223.877 1043.96 217.975 1032.77 208.803 1025.52L222.381 836.585H356.502L369 769.274H368.723C343.09 797.321 311.25 813.954 276.778 813.954Z" fill="url(#paint2_linear_303_17)"/>
<path d="M269.881 684.51L262.564 169.957L234 128L205.462 169.957L198.144 684.51L234 528.78L269.881 684.51Z" fill="white" fill-opacity="0.2"/>
<path d="M295.139 850.723L234 580.488L172.886 850.723C191.357 842.792 216.16 829.252 234.025 812.53C253.126 828.04 276.669 842.817 295.139 850.723ZM216.791 794.09C214.798 795.959 212.628 797.828 210.281 799.723L234 694.867L257.542 798.889C254.918 796.919 252.369 794.923 249.897 792.928L232.839 779.11L216.791 794.09Z" fill="white" fill-opacity="0.2"/>
<path d="M318.025 868.431C286.636 868.431 257.643 855.851 234.252 830.313H233.748C210.382 855.826 181.39 868.431 149.975 868.431C118.56 868.431 89.5927 853.325 66.2019 827.787H66L77.38 889.018H199.507L211.871 1060.89C203.519 1067.46 198.144 1077.64 198.144 1089.11C198.144 1108.93 214.192 1125 234 1125C253.808 1125 269.856 1108.93 269.856 1089.11C269.856 1077.66 264.481 1067.48 256.129 1060.89L268.493 889.018H390.62L402 827.787H401.748C378.407 853.3 349.415 868.431 318.025 868.431Z" fill="white" fill-opacity="0.2"/>
<defs>
<linearGradient id="paint0_linear_303_17" x1="184.5" y1="0" x2="184.5" y2="1096" gradientUnits="userSpaceOnUse">
<stop stop-color="#333333" stop-opacity="0.1"/>
<stop offset="0.265625" stop-color="#333333" stop-opacity="0.6"/>
<stop offset="0.75" stop-color="#333333" stop-opacity="0.1"/>
<stop offset="1" stop-color="#333333" stop-opacity="0.2"/>
</linearGradient>
<linearGradient id="paint1_linear_303_17" x1="184.5" y1="0" x2="184.5" y2="1096" gradientUnits="userSpaceOnUse">
<stop stop-color="#333333" stop-opacity="0.2"/>
<stop offset="1" stop-color="#333333" stop-opacity="0.85"/>
</linearGradient>
<linearGradient id="paint2_linear_303_17" x1="184.5" y1="769.274" x2="184.5" y2="1096" gradientUnits="userSpaceOnUse">
<stop stop-color="#333333"/>
<stop offset="1" stop-color="#333333" stop-opacity="0.2"/>
</linearGradient>
</defs>
</svg>
