<svg width="30" height="31" viewBox="0 0 30 31" fill="none" xmlns="http://www.w3.org/2000/svg">
<path d="M15 0.5C6.71571 0.5 0 7.21571 0 15.5C0 23.7843 6.71571 30.5 15 30.5C23.2843 30.5 30 23.7843 30 15.5C30 7.21571 23.2843 0.5 15 0.5ZM15 3.40323C21.6854 3.40323 27.0968 8.81357 27.0968 15.5C27.0968 22.1854 21.6864 27.5968 15 27.5968C8.3146 27.5968 2.90323 22.1864 2.90323 15.5C2.90323 8.8146 8.31357 3.40323 15 3.40323ZM23.4801 11.2823L22.117 9.90821C21.8347 9.62363 21.3752 9.62175 21.0906 9.90409L12.5411 18.3849L8.92464 14.7391C8.64236 14.4545 8.1828 14.4527 7.89823 14.7349L6.52409 16.098C6.23952 16.3803 6.23764 16.8398 6.51998 17.1245L12.0108 22.6597C12.293 22.9443 12.7526 22.9462 13.0372 22.6638L23.476 12.3088C23.7605 12.0264 23.7624 11.5669 23.4801 11.2823Z" fill="white"/>
</svg>
