<svg width="245" height="133" viewBox="0 0 245 133" fill="none" xmlns="http://www.w3.org/2000/svg">
<g clip-path="url(#clip0_302_4)">
<path d="M57.2739 97.4224C57.2265 96.7821 57.1724 96.1587 57.1148 95.5488C57.0573 94.9389 56.993 94.3627 56.9287 93.8201H55.7067C55.5476 94.0897 55.375 94.4233 55.1786 94.8176C54.9857 95.2118 54.7894 95.6229 54.5863 96.0543C54.3866 96.4856 54.1868 96.9236 53.9939 97.3718C53.801 97.8166 53.6216 98.2311 53.4557 98.6085C53.2898 98.2311 53.1104 97.8166 52.9141 97.3718C52.7178 96.927 52.5181 96.4856 52.3183 96.0543C52.1186 95.6229 51.9189 95.2118 51.726 94.8176C51.533 94.4233 51.357 94.0931 51.1979 93.8201H49.9455C49.8812 94.3323 49.8169 94.8951 49.7593 95.5016C49.7018 96.1082 49.6476 96.7349 49.6002 97.3819C49.5528 98.0289 49.5088 98.6793 49.4682 99.3364C49.4276 99.9935 49.3937 100.627 49.3633 101.244H50.697C50.7274 100.381 50.7613 99.4914 50.8019 98.5782C50.8425 97.665 50.9034 96.7788 50.9813 95.9228C51.0591 96.0812 51.1539 96.2733 51.2622 96.5058C51.3706 96.7383 51.4857 96.9843 51.6075 97.2505C51.7294 97.5134 51.8546 97.7897 51.9799 98.0761C52.1051 98.3625 52.227 98.6388 52.3454 98.9051C52.4639 99.1713 52.5722 99.424 52.6738 99.6599C52.7753 99.8958 52.8599 100.095 52.931 100.26H53.9431C54.0142 100.095 54.1022 99.8958 54.2004 99.6666C54.3019 99.4341 54.4103 99.1847 54.5287 98.9185C54.6472 98.6523 54.7691 98.376 54.8943 98.0896C55.0195 97.8031 55.1448 97.5268 55.2667 97.2606C55.3885 96.9944 55.5036 96.7451 55.6119 96.5159C55.7202 96.2868 55.8116 96.0913 55.8929 95.9262C55.9741 96.7821 56.035 97.6684 56.0723 98.5816C56.1129 99.4948 56.1467 100.384 56.1772 101.247H57.5109C57.4804 100.634 57.4466 100.004 57.4059 99.3566C57.3653 98.7029 57.3213 98.0626 57.2739 97.4224Z" fill="white"/>
<path d="M61.187 97.9211H64.2436V96.7956H61.187V94.9658H64.6193V93.8201H59.833V101.24H64.8766V100.095H61.187V97.9211Z" fill="white"/>
<path d="M66.1357 94.9861H68.4274V101.24H69.7915V94.9861H72.0831V93.8201H66.1357V94.9861Z" fill="white"/>
<path d="M78.1318 97.1393C77.8915 96.5395 77.6545 95.97 77.4176 95.4275C77.1806 94.885 76.9369 94.3492 76.6864 93.8201H75.3933C75.1429 94.3492 74.8991 94.885 74.6622 95.4275C74.4253 95.97 74.1883 96.5395 73.948 97.1393C73.7076 97.7391 73.4639 98.376 73.2134 99.0466C72.9629 99.7172 72.6989 100.448 72.418 101.24H73.8261C73.9277 100.954 74.0292 100.667 74.1341 100.378C74.2391 100.088 74.3406 99.7947 74.4422 99.4948H77.5902C77.6917 99.7947 77.7933 100.088 77.9016 100.374C78.0099 100.661 78.1149 100.95 78.213 101.24H79.6753C79.3944 100.448 79.127 99.7172 78.8731 99.0466C78.6192 98.3726 78.3721 97.7391 78.1318 97.1393ZM74.7874 98.403C75.0176 97.7694 75.2376 97.1797 75.4475 96.6372C75.6574 96.0947 75.8469 95.633 76.0128 95.2556C76.1719 95.6196 76.3581 96.0778 76.5713 96.6271C76.788 97.1764 77.008 97.7694 77.2381 98.403H74.7874Z" fill="white"/>
<path d="M83.0306 96.6136C82.9662 97.4493 82.8376 98.1435 82.6447 98.7028C82.5668 98.9387 82.472 99.1443 82.3637 99.3195C82.2554 99.4947 82.1302 99.6396 81.988 99.7576C81.8458 99.8755 81.6766 99.9699 81.4836 100.041C81.2907 100.111 81.0639 100.162 80.8066 100.192L80.9556 101.368C81.5006 101.355 81.9609 101.254 82.3366 101.068C82.7124 100.883 83.0272 100.634 83.2777 100.324C83.5281 100.014 83.7245 99.6497 83.87 99.2386C84.0122 98.8241 84.1239 98.3827 84.1984 97.9177C84.2728 97.4493 84.327 96.9641 84.3541 96.462C84.3812 95.9599 84.4082 95.4645 84.4285 94.9793H86.4189V101.244H87.7864V93.8235H83.1287C83.1287 94.8479 83.0983 95.7779 83.0306 96.6136Z" fill="white"/>
<path d="M91.763 96.6136C91.6987 97.4493 91.57 98.1435 91.3771 98.7028C91.2992 98.9387 91.2045 99.1443 91.0961 99.3195C90.9878 99.4947 90.8626 99.6396 90.7204 99.7576C90.5783 99.8755 90.409 99.9699 90.2161 100.041C90.0231 100.111 89.7963 100.162 89.5391 100.192L89.688 101.368C90.233 101.355 90.6933 101.254 91.0691 101.068C91.4448 100.883 91.7596 100.634 92.0101 100.324C92.2606 100.014 92.4569 99.6497 92.6025 99.2386C92.7446 98.8241 92.8563 98.3827 92.9308 97.9177C93.0053 97.4493 93.0594 96.9641 93.0865 96.462C93.1136 95.9599 93.1407 95.4645 93.161 94.9793H95.1513V101.244H96.5189V93.8235H91.8612C91.8612 94.8479 91.8273 95.7779 91.763 96.6136Z" fill="white"/>
<path d="M102.612 95.97C102.375 96.6911 102.125 97.3685 101.867 98.0053C101.681 97.6347 101.495 97.264 101.306 96.8933C101.119 96.5227 100.94 96.1587 100.771 95.8015C100.601 95.4443 100.442 95.0973 100.297 94.7637C100.148 94.4267 100.019 94.1133 99.9042 93.8201H98.3877C98.5468 94.1773 98.7228 94.5682 98.9225 94.9995C99.1188 95.4275 99.3389 95.8757 99.5758 96.3441C99.8128 96.8124 100.07 97.2909 100.348 97.7829C100.625 98.2749 100.916 98.7635 101.218 99.2488C101.031 99.5925 100.828 99.8385 100.608 99.9867C100.388 100.138 100.114 100.213 99.7823 100.213C99.6232 100.213 99.4675 100.196 99.3186 100.165C99.1662 100.135 99.0241 100.088 98.8853 100.031L98.6382 101.143C98.7803 101.207 98.9665 101.26 99.1933 101.304C99.4201 101.348 99.6367 101.368 99.8432 101.368C100.188 101.368 100.497 101.321 100.774 101.23C101.052 101.139 101.302 100.994 101.529 100.802C101.756 100.61 101.962 100.364 102.152 100.068C102.341 99.7711 102.528 99.424 102.707 99.023C102.873 98.6456 103.039 98.2614 103.208 97.8705C103.377 97.483 103.546 97.0753 103.716 96.6507C103.885 96.2261 104.058 95.7813 104.23 95.3129C104.403 94.8445 104.575 94.3492 104.748 93.8201H103.286C103.076 94.5345 102.852 95.2523 102.612 95.97Z" fill="white"/>
<path d="M111.034 94.3323C110.455 93.9414 109.626 93.7426 108.542 93.7426C108.221 93.7426 107.865 93.7561 107.483 93.7796C107.1 93.8032 106.748 93.8538 106.434 93.9246V101.237H107.788V98.6253H108.465C109.01 98.6253 109.494 98.5781 109.917 98.4872C110.34 98.3962 110.699 98.2513 110.993 98.0525C111.288 97.857 111.511 97.6043 111.667 97.2909C111.822 96.9809 111.897 96.6069 111.897 96.1722C111.897 95.3398 111.609 94.7265 111.034 94.3323ZM109.951 97.1966C109.599 97.3785 109.098 97.4695 108.444 97.4695H107.788V94.9422C108.011 94.922 108.292 94.9085 108.637 94.9085C108.894 94.9085 109.138 94.9287 109.362 94.9658C109.588 95.0062 109.781 95.0703 109.947 95.1646C110.113 95.259 110.242 95.387 110.333 95.5488C110.424 95.7105 110.472 95.9161 110.472 96.1587C110.479 96.6709 110.303 97.0146 109.951 97.1966Z" fill="white"/>
<path d="M113.888 101.24H115.242V94.9759H118.62V93.8201H113.888V101.24Z" fill="white"/>
<path d="M124.547 94.885C124.219 95.2961 123.887 95.7207 123.552 96.1655C123.22 96.6069 122.895 97.0517 122.584 97.4999C122.272 97.9447 121.995 98.3625 121.751 98.7467V93.8201H120.407V101.24H121.558C121.802 100.833 122.073 100.398 122.374 99.9294C122.675 99.4611 122.987 98.9893 123.308 98.5175C123.63 98.0424 123.958 97.5808 124.293 97.1359C124.628 96.6911 124.943 96.2868 125.244 95.9296V101.24H126.578V93.8201H125.471C125.183 94.12 124.875 94.4738 124.547 94.885Z" fill="white"/>
<path d="M133.083 97.4594C132.918 97.4864 132.718 97.5167 132.488 97.5437C132.254 97.5706 132.024 97.5875 131.794 97.5875C131.228 97.5875 130.815 97.4695 130.558 97.2303C130.301 96.991 130.172 96.5766 130.172 95.9835V93.8201H128.818V96.0239C128.818 96.5024 128.873 96.9135 128.981 97.2539C129.089 97.5976 129.255 97.8773 129.482 98.0997C129.709 98.3221 130 98.4838 130.352 98.5883C130.707 98.6927 131.134 98.7433 131.638 98.7433C131.902 98.7433 132.166 98.7298 132.423 98.7062C132.681 98.6826 132.904 98.6523 133.09 98.6152V101.237H134.444V93.8167H133.09V97.4594H133.083Z" fill="white"/>
<path d="M138.333 97.9211H141.387V96.7956H138.333V94.9658H141.766V93.8201H136.979V101.24H142.023V100.095H138.333V97.9211Z" fill="white"/>
<path d="M148.366 100.057C148.065 100.155 147.676 100.202 147.195 100.202C146.792 100.202 146.451 100.135 146.163 100.004C145.875 99.8721 145.638 99.6868 145.452 99.4475C145.266 99.2083 145.127 98.9252 145.039 98.595C144.948 98.2681 144.904 97.9076 144.904 97.5133C144.904 97.0719 144.961 96.681 145.076 96.3474C145.191 96.0104 145.35 95.7341 145.554 95.5117C145.757 95.2893 146 95.1242 146.278 95.013C146.559 94.9018 146.86 94.8479 147.182 94.8479C147.554 94.8479 147.899 94.895 148.221 94.9928C148.539 95.0905 148.786 95.1916 148.959 95.2994L149.358 94.1975C149.307 94.1705 149.223 94.1234 149.101 94.0593C148.979 93.9953 148.823 93.9347 148.637 93.8774C148.451 93.8201 148.231 93.7695 147.981 93.7224C147.73 93.6752 147.449 93.6516 147.141 93.6516C146.633 93.6516 146.156 93.7358 145.709 93.9077C145.262 94.0796 144.877 94.3289 144.548 94.6625C144.22 94.9928 143.959 95.4005 143.77 95.879C143.58 96.3575 143.485 96.9068 143.485 97.5268C143.485 98.1468 143.567 98.6961 143.732 99.1746C143.898 99.6531 144.135 100.057 144.443 100.391C144.751 100.725 145.127 100.974 145.574 101.146C146.017 101.318 146.522 101.402 147.08 101.402C147.368 101.402 147.635 101.385 147.886 101.355C148.136 101.321 148.363 101.281 148.563 101.227C148.763 101.173 148.939 101.119 149.084 101.062C149.23 101.004 149.348 100.947 149.433 100.89L149.067 99.7879C148.901 99.8688 148.668 99.9597 148.366 100.057Z" fill="white"/>
<path d="M155.81 99.0398C155.509 98.6928 155.204 98.3693 154.889 98.066C154.578 97.7627 154.27 97.4965 153.968 97.2674C154.239 97.0045 154.517 96.7248 154.801 96.4317C155.085 96.1385 155.366 95.8453 155.644 95.5488C155.925 95.2523 156.196 94.9591 156.463 94.6659C156.727 94.3728 156.981 94.0897 157.215 93.8201H155.59C155.404 94.0257 155.194 94.2582 154.967 94.5177C154.737 94.7738 154.496 95.04 154.243 95.3163C153.989 95.5926 153.731 95.8622 153.474 96.1318C153.217 96.398 152.97 96.6507 152.733 96.8866V93.8235H151.379V101.244H152.733V97.9144C153.014 98.1064 153.295 98.3356 153.583 98.5984C153.87 98.8612 154.148 99.1409 154.415 99.4341C154.683 99.7273 154.94 100.031 155.184 100.344C155.427 100.657 155.644 100.957 155.83 101.244H157.431C157.201 100.873 156.951 100.499 156.673 100.125C156.395 99.7509 156.111 99.3869 155.81 99.0398Z" fill="white"/>
<path d="M164.334 97.1393C164.094 96.5395 163.857 95.97 163.62 95.4275C163.383 94.885 163.139 94.3492 162.889 93.8201H161.595C161.345 94.3492 161.101 94.885 160.864 95.4275C160.627 95.97 160.39 96.5395 160.15 97.1393C159.91 97.7391 159.666 98.376 159.416 99.0466C159.165 99.7172 158.901 100.448 158.62 101.24H160.028C160.13 100.954 160.231 100.667 160.336 100.378C160.441 100.088 160.543 99.7947 160.644 99.4948H163.792C163.894 99.7947 163.995 100.088 164.104 100.374C164.212 100.661 164.317 100.95 164.415 101.24H165.877C165.597 100.448 165.329 99.7172 165.075 99.0466C164.821 98.3726 164.574 97.7391 164.334 97.1393ZM160.99 98.403C161.22 97.7694 161.44 97.1797 161.65 96.6372C161.86 96.0947 162.049 95.633 162.215 95.2556C162.374 95.6196 162.56 96.0778 162.773 96.6271C162.987 97.1764 163.21 97.7694 163.44 98.403H160.99Z" fill="white"/>
<path d="M170.954 93.746C170.43 93.746 169.959 93.7965 169.536 93.8976C169.113 93.9987 168.754 94.147 168.456 94.3424C168.158 94.5379 167.928 94.7872 167.769 95.0871C167.61 95.387 167.529 95.7375 167.529 96.1351C167.529 96.6507 167.644 97.082 167.874 97.4291C168.104 97.7795 168.463 98.0424 168.951 98.221C168.822 98.3861 168.68 98.5849 168.524 98.814C168.368 99.0466 168.216 99.2959 168.06 99.5621C167.905 99.8283 167.752 100.108 167.603 100.391C167.451 100.678 167.312 100.957 167.184 101.237H168.626C168.754 100.981 168.89 100.721 169.028 100.462C169.167 100.202 169.309 99.9463 169.448 99.7003C169.587 99.4543 169.729 99.2218 169.875 99.0027C170.017 98.7837 170.162 98.5916 170.305 98.4198C170.389 98.4333 170.484 98.4434 170.585 98.4467C170.687 98.4501 170.782 98.4535 170.877 98.4535H171.662V101.237H173.016V93.9246C172.688 93.8538 172.336 93.8066 171.963 93.7797C171.581 93.7561 171.246 93.746 170.954 93.746ZM171.652 97.3415H171.059C170.731 97.3415 170.433 97.3246 170.173 97.2876C169.912 97.2505 169.688 97.1865 169.506 97.0955C169.323 97.0045 169.184 96.8764 169.086 96.7214C168.988 96.5664 168.94 96.3643 168.94 96.1216C168.94 95.8925 168.988 95.7004 169.086 95.542C169.184 95.3837 169.316 95.259 169.489 95.168C169.661 95.077 169.864 95.0096 170.095 94.9692C170.328 94.9287 170.579 94.9119 170.853 94.9119C171.134 94.9119 171.398 94.922 171.648 94.9456V97.3415H171.652Z" fill="white"/>
<path d="M183.235 99.0398C182.933 98.6928 182.629 98.3693 182.314 98.066C182.002 97.7627 181.694 97.4965 181.393 97.2674C181.664 97.0045 181.942 96.7248 182.226 96.4317C182.51 96.1385 182.791 95.8453 183.069 95.5488C183.35 95.2523 183.621 94.9591 183.888 94.6659C184.152 94.3728 184.406 94.0897 184.639 93.8201H183.015C182.828 94.0257 182.619 94.2582 182.392 94.5177C182.162 94.7738 181.921 95.04 181.667 95.3163C181.414 95.5926 181.156 95.8622 180.899 96.1318C180.642 96.398 180.395 96.6507 180.158 96.8866V93.8235H178.804V101.244H180.158V97.9144C180.439 98.1064 180.72 98.3356 181.007 98.5984C181.295 98.8612 181.573 99.1409 181.84 99.4341C182.107 99.7273 182.365 100.031 182.608 100.344C182.852 100.657 183.069 100.957 183.255 101.244H184.856C184.626 100.873 184.375 100.499 184.098 100.125C183.82 99.7509 183.536 99.3869 183.235 99.0398Z" fill="white"/>
<path d="M192.08 94.6322C191.755 94.3053 191.373 94.0594 190.936 93.8942C190.499 93.7291 190.036 93.6483 189.548 93.6483C189.061 93.6483 188.597 93.7291 188.16 93.8942C187.724 94.0594 187.338 94.3053 187.003 94.6322C186.671 94.9591 186.407 95.3668 186.214 95.8487C186.021 96.3306 185.923 96.8899 185.923 97.5234C185.923 98.1603 186.021 98.7197 186.214 99.2049C186.407 99.6902 186.668 100.095 186.992 100.421C187.317 100.748 187.703 100.991 188.143 101.156C188.583 101.321 189.051 101.402 189.548 101.402C190.046 101.402 190.509 101.321 190.946 101.156C191.383 100.991 191.765 100.748 192.09 100.421C192.415 100.098 192.676 99.6902 192.865 99.2049C193.055 98.7197 193.15 98.1603 193.15 97.5234C193.15 96.8899 193.052 96.3306 192.859 95.8487C192.666 95.3668 192.408 94.9624 192.08 94.6322ZM191.582 98.6321C191.481 98.9623 191.335 99.2454 191.146 99.4779C190.956 99.7104 190.723 99.889 190.452 100.017C190.178 100.145 189.873 100.209 189.538 100.209C189.193 100.209 188.885 100.145 188.614 100.017C188.343 99.889 188.11 99.707 187.92 99.4779C187.73 99.2454 187.585 98.9623 187.483 98.6321C187.382 98.2985 187.334 97.9312 187.334 97.5234C187.334 97.1157 187.385 96.7484 187.483 96.4215C187.585 96.0947 187.73 95.8116 187.92 95.5757C188.11 95.3399 188.34 95.1579 188.614 95.0298C188.885 94.9018 189.196 94.8378 189.538 94.8378C189.876 94.8378 190.181 94.9018 190.452 95.0298C190.723 95.1579 190.956 95.3399 191.146 95.569C191.335 95.8015 191.481 96.0846 191.582 96.4148C191.684 96.745 191.735 97.1157 191.735 97.5234C191.735 97.9312 191.681 98.3019 191.582 98.6321Z" fill="white"/>
<path d="M203.091 97.4224C203.044 96.7821 202.99 96.1587 202.932 95.5488C202.875 94.9389 202.81 94.3627 202.746 93.8201H201.524C201.365 94.0897 201.189 94.4233 200.996 94.8176C200.803 95.2118 200.603 95.6229 200.404 96.0543C200.204 96.4856 200.008 96.9236 199.811 97.3718C199.618 97.8166 199.439 98.2311 199.273 98.6085C199.107 98.2311 198.928 97.8166 198.731 97.3718C198.535 96.927 198.335 96.4856 198.136 96.0543C197.936 95.6229 197.74 95.2118 197.543 94.8176C197.347 94.4233 197.174 94.0931 197.015 93.8201H195.763C195.699 94.3323 195.634 94.8951 195.577 95.5016C195.519 96.1082 195.465 96.7349 195.418 97.3819C195.37 98.0289 195.326 98.6793 195.286 99.3364C195.245 99.9935 195.211 100.627 195.181 101.244H196.514C196.545 100.381 196.579 99.4914 196.619 98.5782C196.66 97.665 196.721 96.7788 196.802 95.9228C196.88 96.0812 196.975 96.2733 197.083 96.5058C197.191 96.7383 197.306 96.9843 197.428 97.2505C197.55 97.5134 197.675 97.7897 197.801 98.0761C197.926 98.3625 198.048 98.6388 198.166 98.9051C198.285 99.1713 198.393 99.424 198.495 99.6599C198.596 99.8958 198.681 100.095 198.752 100.26H199.764C199.835 100.095 199.923 99.8958 200.021 99.6666C200.119 99.4375 200.231 99.1847 200.35 98.9185C200.468 98.6523 200.59 98.376 200.715 98.0896C200.84 97.8031 200.966 97.5268 201.087 97.2606C201.209 96.9944 201.324 96.7451 201.433 96.5159C201.541 96.2868 201.632 96.0913 201.714 95.9262C201.795 96.7821 201.856 97.6684 201.893 98.5816C201.934 99.4948 201.968 100.384 201.998 101.247H203.332C203.301 100.634 203.267 100.004 203.227 99.3566C203.183 98.7029 203.139 98.0626 203.091 97.4224Z" fill="white"/>
<path d="M205.646 101.24H207.004V94.9759H210.186V101.24H211.543V93.8201H205.646V101.24Z" fill="white"/>
<path d="M218.956 97.1393C218.716 96.5395 218.479 95.97 218.242 95.4275C218.005 94.885 217.761 94.3492 217.511 93.8201H216.218C215.967 94.3492 215.723 94.885 215.486 95.4275C215.249 95.97 215.013 96.5395 214.772 97.1393C214.532 97.7391 214.288 98.376 214.038 99.0466C213.787 99.7172 213.523 100.448 213.242 101.24H214.65C214.752 100.954 214.853 100.667 214.958 100.378C215.063 100.088 215.165 99.7947 215.266 99.4948H218.414C218.516 99.7947 218.618 100.088 218.726 100.374C218.834 100.661 218.939 100.95 219.037 101.24H220.5C220.219 100.448 219.951 99.7172 219.697 99.0466C219.447 98.3726 219.196 97.7391 218.956 97.1393ZM215.612 98.403C215.842 97.7694 216.062 97.1797 216.272 96.6372C216.482 96.0947 216.671 95.633 216.837 95.2556C216.996 95.6196 217.182 96.0778 217.396 96.6271C217.609 97.1764 217.832 97.7694 218.062 98.403H215.612Z" fill="white"/>
<path d="M226.783 96.7855H223.543V93.8201H222.189V101.24H223.543V97.9514H226.783V101.24H228.137V93.8201H226.783V96.7855Z" fill="white"/>
<path d="M234.815 94.885C234.486 95.2961 234.155 95.7207 233.819 96.1655C233.488 96.6069 233.163 97.0517 232.851 97.4999C232.54 97.9447 232.262 98.3625 232.019 98.7467V93.8201H230.675V101.24H231.826C232.069 100.833 232.34 100.398 232.641 99.9294C232.943 99.4611 233.254 98.9893 233.576 98.5175C233.897 98.0424 234.226 97.5808 234.561 97.1359C234.896 96.6911 235.211 96.2868 235.512 95.9296V101.24H236.846V93.8201H235.739C235.454 94.12 235.146 94.4738 234.815 94.885Z" fill="white"/>
<path d="M242.624 93.746C242.1 93.746 241.629 93.7965 241.206 93.8976C240.783 93.9987 240.424 94.147 240.126 94.3424C239.828 94.5379 239.598 94.7872 239.439 95.0871C239.28 95.387 239.199 95.7375 239.199 96.1351C239.199 96.6507 239.314 97.082 239.544 97.4291C239.774 97.7795 240.133 98.0424 240.62 98.221C240.492 98.3861 240.35 98.5849 240.194 98.814C240.038 99.0466 239.886 99.2959 239.73 99.5621C239.575 99.8283 239.422 100.108 239.273 100.391C239.121 100.678 238.982 100.957 238.854 101.237H240.296C240.424 100.981 240.56 100.721 240.698 100.462C240.837 100.202 240.979 99.9463 241.118 99.7003C241.257 99.4543 241.399 99.2218 241.545 99.0027C241.687 98.7837 241.832 98.5916 241.974 98.4198C242.059 98.4333 242.154 98.4434 242.255 98.4467C242.357 98.4501 242.452 98.4535 242.546 98.4535H243.332V101.237H244.686V93.9246C244.357 93.8538 244.005 93.8066 243.633 93.7797C243.251 93.7561 242.919 93.746 242.624 93.746ZM243.325 97.3415H242.733C242.404 97.3415 242.106 97.3246 241.846 97.2876C241.585 97.2505 241.362 97.1865 241.179 97.0955C240.996 97.0045 240.857 96.8764 240.759 96.7214C240.661 96.5664 240.614 96.3643 240.614 96.1216C240.614 95.8925 240.661 95.7004 240.759 95.542C240.857 95.3837 240.989 95.259 241.162 95.168C241.335 95.077 241.538 95.0096 241.768 94.9692C242.002 94.9287 242.252 94.9119 242.526 94.9119C242.807 94.9119 243.071 94.922 243.322 94.9456V97.3415H243.325Z" fill="white"/>
<path d="M55.4732 87.9939C55.8456 86.5482 56.2213 85.0925 56.6072 83.63C56.9524 82.3159 63.0657 79.6302 63.0657 79.6302C63.0657 79.6302 69.1925 82.326 69.5479 83.6132C69.9372 85.0285 70.3264 86.5011 70.6988 87.9871L70.8206 88.4757H77.3502L77.1031 87.5154C76.0775 83.5323 75.0789 79.7818 74.1379 76.375C73.1935 72.9648 72.2694 69.7131 71.3893 66.7005C70.4991 63.6576 69.6088 60.7293 68.7389 57.9965C67.8689 55.2603 66.9584 52.5173 66.0275 49.835L65.8854 49.4239H60.4356L60.2934 49.8384C59.3659 52.5139 58.4554 55.2603 57.5854 57.9999C56.7155 60.7361 55.8253 63.6644 54.9384 66.7039C54.0583 69.7198 53.141 72.975 52.2135 76.3818C51.2826 79.7919 50.2942 83.5391 49.2686 87.5187L49.0215 88.4791H55.3514L55.4732 87.9939ZM61.468 64.6787C62.0434 62.6568 62.5782 60.8405 63.0623 59.2601C63.5294 60.7967 64.0575 62.5928 64.6397 64.6248C65.3471 67.1082 67.0362 72.7256 67.7911 75.573L63.0657 72.6515L58.3504 75.573C59.1019 72.729 60.7741 67.1285 61.468 64.6787Z" fill="white"/>
<path d="M101.58 86.5617L101.915 86.2584L100.243 79.3437L99.691 79.7346C99.1088 80.1491 98.2659 80.5973 97.1895 81.0724C96.1334 81.534 94.7286 81.7699 93.0159 81.7699C91.6145 81.7699 90.4061 81.4532 89.421 80.8331C88.4428 80.2165 87.627 79.3404 86.9906 78.225C86.3475 77.0961 85.8634 75.728 85.552 74.1611C85.2338 72.5706 85.0747 70.7913 85.0747 68.8706C85.0747 66.714 85.2778 64.8033 85.684 63.1859C86.0801 61.5886 86.6386 60.2508 87.3427 59.2062C88.04 58.1717 88.8794 57.3832 89.834 56.8642C90.7987 56.3386 91.8582 56.0723 92.9786 56.0723C94.2987 56.0723 95.5376 56.3082 96.6615 56.7733C97.792 57.2416 98.6654 57.7336 99.2577 58.2425L99.8128 58.7176L101.654 51.7153L101.268 51.4154C101.079 51.2705 100.757 51.0312 100.3 50.6976C99.8162 50.3472 99.2272 50.0304 98.4995 49.7238C97.792 49.4272 96.9559 49.1543 96.0149 48.9184C95.057 48.6758 93.9806 48.5545 92.8161 48.5545C90.8799 48.5545 89.0351 49.0094 87.3359 49.9057C85.6299 50.8088 84.1236 52.15 82.8576 53.8955C81.595 55.641 80.5863 57.7943 79.8585 60.298C79.1341 62.795 78.7686 65.6963 78.7686 68.9211C78.7686 72.1359 79.0867 75.0271 79.713 77.514C80.3426 80.021 81.2633 82.181 82.448 83.9299C83.6361 85.6856 85.1086 87.0335 86.8214 87.9399C88.5172 88.8363 90.4534 89.2912 92.5792 89.2912C93.6556 89.2912 94.6813 89.2069 95.629 89.0418C96.5734 88.8767 97.44 88.6509 98.205 88.3712C98.9666 88.0916 99.6335 87.8018 100.189 87.5052C100.774 87.1885 101.231 86.8818 101.58 86.5617Z" fill="white"/>
<path d="M122.821 88.4757H129.976L129.482 87.3772C128.626 85.4834 127.675 83.5593 126.656 81.6554C125.633 79.7515 124.547 77.8914 123.43 76.129C122.316 74.3734 121.162 72.6953 120.001 71.1452C119.002 69.8175 118.007 68.6111 117.032 67.5564C117.902 66.3905 118.796 65.1572 119.693 63.8834C120.742 62.3974 121.785 60.9046 122.817 59.3983C123.846 57.9021 124.865 56.3925 125.847 54.9098C126.835 53.417 127.773 51.9714 128.636 50.61L129.394 49.4171H121.998L121.842 49.6564C121.152 50.7078 120.383 51.8838 119.534 53.1845C118.691 54.4819 117.787 55.8365 116.856 57.2181C115.908 58.6199 114.954 60.0048 114.02 61.3325C113.39 62.2255 112.777 63.0882 112.185 63.9104V49.4171H106.119V88.469H112.185V72.2808C112.93 73.0491 113.685 73.9185 114.439 74.8721C115.485 76.193 116.514 77.605 117.489 79.0641C118.471 80.5299 119.419 82.0665 120.306 83.63C121.196 85.2037 121.988 86.7201 122.665 88.1421L122.821 88.4757Z" fill="white"/>
<path d="M180.978 80.2266L183.053 88.4723H189.694L189.457 87.5187C187.87 81.1364 186.133 74.6598 184.298 68.2742C182.464 61.8953 180.524 55.6916 178.537 49.835L178.395 49.4171H172.911L172.769 49.835C170.779 55.6815 168.839 61.8885 167.008 68.2742C165.177 74.6699 163.427 81.1398 161.812 87.512L161.568 88.469H168.061L168.179 87.9736C168.788 85.4531 169.432 82.8449 170.092 80.2232C170.745 77.6286 171.422 75.0035 172.102 72.4189C172.776 69.8681 173.45 67.3812 174.113 65.0224C174.604 63.2735 175.081 61.6189 175.541 60.0824C176.019 61.6291 176.503 63.2937 176.994 65.0493C177.65 67.4081 178.321 69.895 178.984 72.4425C179.651 74.9934 180.314 77.5881 180.978 80.2266Z" fill="white"/>
<path d="M216.855 77.7061C217.579 75.172 217.944 72.2168 217.944 68.9245C217.944 65.6256 217.572 62.677 216.834 60.1632C216.096 57.6427 215.088 55.4894 213.835 53.7641C212.579 52.0321 211.093 50.7179 209.411 49.8518C207.742 48.9926 205.952 48.5579 204.097 48.5579C202.238 48.5579 200.451 48.9926 198.782 49.8518C197.103 50.7179 195.604 52.0321 194.324 53.7574C193.045 55.4827 192.022 57.6393 191.281 60.1632C190.543 62.6804 190.171 65.6256 190.171 68.9245C190.171 72.2201 190.543 75.1754 191.281 77.7128C192.019 80.2536 193.031 82.4102 194.28 84.1153C195.533 85.8271 197.029 87.1346 198.721 87.9972C200.404 88.8565 202.211 89.2912 204.097 89.2912C205.982 89.2912 207.783 88.8565 209.452 87.9972C211.134 87.1312 212.62 85.8271 213.872 84.1153C215.128 82.4035 216.13 80.2468 216.855 77.7061ZM211.107 74.3296C210.758 75.9134 210.247 77.2747 209.594 78.3699C208.944 79.4583 208.142 80.3142 207.214 80.914C206.283 81.5172 205.22 81.8205 204.059 81.8205C202.871 81.8205 201.798 81.5139 200.867 80.914C199.936 80.3142 199.134 79.4583 198.484 78.3699C197.831 77.2747 197.32 75.9134 196.971 74.3296C196.616 72.7256 196.436 70.9059 196.436 68.9212C196.436 66.9398 196.616 65.1302 196.971 63.5397C197.32 61.9728 197.831 60.608 198.488 59.4926C199.138 58.3907 199.936 57.5247 200.867 56.9249C201.798 56.3217 202.871 56.0185 204.059 56.0185C205.22 56.0185 206.283 56.3251 207.214 56.9249C208.145 57.5247 208.944 58.3806 209.594 59.4691C210.247 60.5642 210.758 61.9256 211.107 63.5094C211.462 65.1167 211.642 66.9364 211.642 68.9178C211.642 70.9026 211.462 72.7222 211.107 74.3296Z" fill="white"/>
<path d="M238.938 49.4239V64.4563H228.025V49.4239H221.959V88.4757H228.025V71.8124H238.938V88.4757H245V49.4239H238.938Z" fill="white"/>
<path d="M152.91 87.9601L153.032 88.4487H159.561L159.314 87.4884C158.288 83.5053 157.29 79.7548 156.349 76.348C155.404 72.9379 154.48 69.6861 153.6 66.6735C152.71 63.6307 151.82 60.7024 150.95 57.9695C150.08 55.2333 149.169 52.4903 148.238 49.808L148.096 49.3969H142.647L142.504 49.8114C141.577 52.487 140.666 55.2333 139.796 57.9729C138.926 60.7091 138.036 63.6374 137.149 66.6769C136.269 69.6928 135.352 72.948 134.424 76.3548C133.494 79.7649 132.505 83.5121 131.48 87.4917L131.232 88.4521H137.562L137.688 87.9702C138.06 86.5246 138.436 85.0689 138.821 83.6064C139.167 82.2922 145.28 79.6066 145.28 79.6066C145.28 79.6066 151.407 82.3024 151.762 83.5896C152.148 85.0015 152.537 86.4707 152.91 87.9601ZM145.277 72.6245L140.561 75.546C141.316 72.6986 142.985 67.1015 143.682 64.6517C144.258 62.6299 144.793 60.8136 145.277 59.2332C145.744 60.7698 146.272 62.5658 146.854 64.5978C147.561 67.0813 149.251 72.6986 150.005 75.546L145.277 72.6245Z" fill="white"/>
<path d="M27.35 74.2386L26.3684 5.59713L22.5366 0L18.7082 5.59713L17.7266 74.2386L22.5366 53.4642L27.35 74.2386Z" fill="white"/>
<path d="M30.739 96.4114L22.5372 60.362L14.3389 96.4114C16.8167 95.3533 20.1441 93.5472 22.5406 91.3164C25.103 93.3854 28.2612 95.3567 30.739 96.4114ZM20.2287 88.8565C19.9613 89.1059 19.6702 89.3552 19.3554 89.6079L22.5372 75.6202L25.6954 89.4967C25.3434 89.2339 25.0015 88.9677 24.6698 88.7015L22.3815 86.8582L20.2287 88.8565Z" fill="white"/>
<path d="M33.809 98.7736C29.5981 98.7736 25.7088 97.0955 22.5709 93.6887H22.5371H22.5032C19.3687 97.0921 15.4794 98.7736 11.2651 98.7736C7.05087 98.7736 3.16494 96.7585 0.0270797 93.3517H0L1.52662 101.52H17.9098L19.5685 124.448C18.448 125.324 17.727 126.682 17.727 128.212C17.727 130.857 19.8799 133 22.5371 133C25.1943 133 27.3471 130.857 27.3471 128.212C27.3471 126.685 26.6261 125.327 25.5057 124.448L27.1643 101.52H43.5475L45.0741 93.3517H45.0403C41.9092 96.7551 38.0199 98.7736 33.809 98.7736Z" fill="white"/>
</g>
<g clip-path="url(#clip1_302_4)">
<path d="M57.2739 97.4224C57.2265 96.7821 57.1724 96.1587 57.1148 95.5488C57.0573 94.9389 56.993 94.3627 56.9287 93.8201H55.7067C55.5476 94.0897 55.375 94.4233 55.1786 94.8176C54.9857 95.2118 54.7894 95.6229 54.5863 96.0543C54.3866 96.4856 54.1868 96.9236 53.9939 97.3718C53.801 97.8166 53.6216 98.2311 53.4557 98.6085C53.2898 98.2311 53.1104 97.8166 52.9141 97.3718C52.7178 96.927 52.5181 96.4856 52.3183 96.0543C52.1186 95.6229 51.9189 95.2118 51.726 94.8176C51.533 94.4233 51.357 94.0931 51.1979 93.8201H49.9455C49.8812 94.3323 49.8169 94.8951 49.7593 95.5016C49.7018 96.1082 49.6476 96.7349 49.6002 97.3819C49.5528 98.0289 49.5088 98.6793 49.4682 99.3364C49.4276 99.9935 49.3937 100.627 49.3633 101.244H50.697C50.7274 100.381 50.7613 99.4914 50.8019 98.5782C50.8425 97.665 50.9034 96.7788 50.9813 95.9228C51.0591 96.0812 51.1539 96.2733 51.2622 96.5058C51.3706 96.7383 51.4857 96.9843 51.6075 97.2505C51.7294 97.5134 51.8546 97.7897 51.9799 98.0761C52.1051 98.3625 52.227 98.6388 52.3454 98.9051C52.4639 99.1713 52.5722 99.424 52.6738 99.6599C52.7753 99.8958 52.8599 100.095 52.931 100.26H53.9431C54.0142 100.095 54.1022 99.8958 54.2004 99.6666C54.3019 99.4341 54.4103 99.1847 54.5287 98.9185C54.6472 98.6523 54.7691 98.376 54.8943 98.0896C55.0195 97.8031 55.1448 97.5268 55.2667 97.2606C55.3885 96.9944 55.5036 96.7451 55.6119 96.5159C55.7202 96.2868 55.8116 96.0913 55.8929 95.9262C55.9741 96.7821 56.035 97.6684 56.0723 98.5816C56.1129 99.4948 56.1467 100.384 56.1772 101.247H57.5109C57.4804 100.634 57.4466 100.004 57.4059 99.3566C57.3653 98.7029 57.3213 98.0626 57.2739 97.4224Z" fill="#A2A2A2"/>
<path d="M61.187 97.9211H64.2436V96.7956H61.187V94.9658H64.6193V93.8201H59.833V101.24H64.8766V100.095H61.187V97.9211Z" fill="#A2A2A2"/>
<path d="M66.1357 94.9861H68.4274V101.24H69.7915V94.9861H72.0831V93.8201H66.1357V94.9861Z" fill="#A2A2A2"/>
<path d="M78.1318 97.1393C77.8915 96.5395 77.6545 95.97 77.4176 95.4275C77.1806 94.885 76.9369 94.3492 76.6864 93.8201H75.3933C75.1429 94.3492 74.8991 94.885 74.6622 95.4275C74.4253 95.97 74.1883 96.5395 73.948 97.1393C73.7076 97.7391 73.4639 98.376 73.2134 99.0466C72.9629 99.7172 72.6989 100.448 72.418 101.24H73.8261C73.9277 100.954 74.0292 100.667 74.1341 100.378C74.2391 100.088 74.3406 99.7947 74.4422 99.4948H77.5902C77.6917 99.7947 77.7933 100.088 77.9016 100.374C78.0099 100.661 78.1149 100.95 78.213 101.24H79.6753C79.3944 100.448 79.127 99.7172 78.8731 99.0466C78.6192 98.3726 78.3721 97.7391 78.1318 97.1393ZM74.7874 98.403C75.0176 97.7694 75.2376 97.1797 75.4475 96.6372C75.6574 96.0947 75.8469 95.633 76.0128 95.2556C76.1719 95.6196 76.3581 96.0778 76.5713 96.6271C76.788 97.1764 77.008 97.7694 77.2381 98.403H74.7874Z" fill="#A2A2A2"/>
<path d="M83.0306 96.6136C82.9662 97.4493 82.8376 98.1435 82.6447 98.7028C82.5668 98.9387 82.472 99.1443 82.3637 99.3195C82.2554 99.4947 82.1302 99.6396 81.988 99.7576C81.8458 99.8755 81.6766 99.9699 81.4836 100.041C81.2907 100.111 81.0639 100.162 80.8066 100.192L80.9556 101.368C81.5006 101.355 81.9609 101.254 82.3366 101.068C82.7124 100.883 83.0272 100.634 83.2777 100.324C83.5281 100.014 83.7245 99.6497 83.87 99.2386C84.0122 98.8241 84.1239 98.3827 84.1984 97.9177C84.2728 97.4493 84.327 96.9641 84.3541 96.462C84.3812 95.9599 84.4082 95.4645 84.4285 94.9793H86.4189V101.244H87.7864V93.8235H83.1287C83.1287 94.8479 83.0983 95.7779 83.0306 96.6136Z" fill="#A2A2A2"/>
<path d="M91.763 96.6136C91.6987 97.4493 91.57 98.1435 91.3771 98.7028C91.2992 98.9387 91.2045 99.1443 91.0961 99.3195C90.9878 99.4947 90.8626 99.6396 90.7204 99.7576C90.5783 99.8755 90.409 99.9699 90.2161 100.041C90.0231 100.111 89.7963 100.162 89.5391 100.192L89.688 101.368C90.233 101.355 90.6933 101.254 91.0691 101.068C91.4448 100.883 91.7596 100.634 92.0101 100.324C92.2606 100.014 92.4569 99.6497 92.6025 99.2386C92.7446 98.8241 92.8563 98.3827 92.9308 97.9177C93.0053 97.4493 93.0594 96.9641 93.0865 96.462C93.1136 95.9599 93.1407 95.4645 93.161 94.9793H95.1513V101.244H96.5189V93.8235H91.8612C91.8612 94.8479 91.8273 95.7779 91.763 96.6136Z" fill="#A2A2A2"/>
<path d="M102.612 95.97C102.375 96.6911 102.125 97.3685 101.867 98.0053C101.681 97.6347 101.495 97.264 101.306 96.8933C101.119 96.5227 100.94 96.1587 100.771 95.8015C100.601 95.4443 100.442 95.0973 100.297 94.7637C100.148 94.4267 100.019 94.1133 99.9042 93.8201H98.3877C98.5468 94.1773 98.7228 94.5682 98.9225 94.9995C99.1188 95.4275 99.3389 95.8757 99.5758 96.3441C99.8128 96.8124 100.07 97.2909 100.348 97.7829C100.625 98.2749 100.916 98.7635 101.218 99.2488C101.031 99.5925 100.828 99.8385 100.608 99.9867C100.388 100.138 100.114 100.213 99.7823 100.213C99.6232 100.213 99.4675 100.196 99.3186 100.165C99.1662 100.135 99.0241 100.088 98.8853 100.031L98.6382 101.143C98.7803 101.207 98.9665 101.26 99.1933 101.304C99.4201 101.348 99.6367 101.368 99.8432 101.368C100.188 101.368 100.497 101.321 100.774 101.23C101.052 101.139 101.302 100.994 101.529 100.802C101.756 100.61 101.962 100.364 102.152 100.068C102.341 99.7711 102.528 99.424 102.707 99.023C102.873 98.6456 103.039 98.2614 103.208 97.8705C103.377 97.483 103.546 97.0753 103.716 96.6507C103.885 96.2261 104.058 95.7813 104.23 95.3129C104.403 94.8445 104.575 94.3492 104.748 93.8201H103.286C103.076 94.5345 102.852 95.2523 102.612 95.97Z" fill="#A2A2A2"/>
<path d="M111.034 94.3323C110.455 93.9414 109.626 93.7426 108.542 93.7426C108.221 93.7426 107.865 93.7561 107.483 93.7796C107.1 93.8032 106.748 93.8538 106.434 93.9246V101.237H107.788V98.6253H108.465C109.01 98.6253 109.494 98.5781 109.917 98.4872C110.34 98.3962 110.699 98.2513 110.993 98.0525C111.288 97.857 111.511 97.6043 111.667 97.2909C111.822 96.9809 111.897 96.6069 111.897 96.1722C111.897 95.3398 111.609 94.7265 111.034 94.3323ZM109.951 97.1966C109.599 97.3785 109.098 97.4695 108.444 97.4695H107.788V94.9422C108.011 94.922 108.292 94.9085 108.637 94.9085C108.894 94.9085 109.138 94.9287 109.362 94.9658C109.588 95.0062 109.781 95.0703 109.947 95.1646C110.113 95.259 110.242 95.387 110.333 95.5488C110.424 95.7105 110.472 95.9161 110.472 96.1587C110.479 96.6709 110.303 97.0146 109.951 97.1966Z" fill="#A2A2A2"/>
<path d="M113.888 101.24H115.242V94.9759H118.62V93.8201H113.888V101.24Z" fill="#A2A2A2"/>
<path d="M124.547 94.885C124.219 95.2961 123.887 95.7207 123.552 96.1655C123.22 96.6069 122.895 97.0517 122.584 97.4999C122.272 97.9447 121.995 98.3625 121.751 98.7467V93.8201H120.407V101.24H121.558C121.802 100.833 122.073 100.398 122.374 99.9294C122.675 99.4611 122.987 98.9893 123.308 98.5175C123.63 98.0424 123.958 97.5808 124.293 97.1359C124.628 96.6911 124.943 96.2868 125.244 95.9296V101.24H126.578V93.8201H125.471C125.183 94.12 124.875 94.4738 124.547 94.885Z" fill="#A2A2A2"/>
<path d="M133.083 97.4594C132.918 97.4864 132.718 97.5167 132.488 97.5437C132.254 97.5706 132.024 97.5875 131.794 97.5875C131.228 97.5875 130.815 97.4695 130.558 97.2303C130.301 96.991 130.172 96.5766 130.172 95.9835V93.8201H128.818V96.0239C128.818 96.5024 128.873 96.9135 128.981 97.2539C129.089 97.5976 129.255 97.8773 129.482 98.0997C129.709 98.3221 130 98.4838 130.352 98.5883C130.707 98.6927 131.134 98.7433 131.638 98.7433C131.902 98.7433 132.166 98.7298 132.423 98.7062C132.681 98.6826 132.904 98.6523 133.09 98.6152V101.237H134.444V93.8167H133.09V97.4594H133.083Z" fill="#A2A2A2"/>
<path d="M138.333 97.9211H141.387V96.7956H138.333V94.9658H141.766V93.8201H136.979V101.24H142.023V100.095H138.333V97.9211Z" fill="#A2A2A2"/>
<path d="M148.366 100.057C148.065 100.155 147.676 100.202 147.195 100.202C146.792 100.202 146.451 100.135 146.163 100.004C145.875 99.8721 145.638 99.6868 145.452 99.4475C145.266 99.2083 145.127 98.9252 145.039 98.595C144.948 98.2681 144.904 97.9076 144.904 97.5133C144.904 97.0719 144.961 96.681 145.076 96.3474C145.191 96.0104 145.35 95.7341 145.554 95.5117C145.757 95.2893 146 95.1242 146.278 95.013C146.559 94.9018 146.86 94.8479 147.182 94.8479C147.554 94.8479 147.899 94.895 148.221 94.9928C148.539 95.0905 148.786 95.1916 148.959 95.2994L149.358 94.1975C149.307 94.1705 149.223 94.1234 149.101 94.0593C148.979 93.9953 148.823 93.9347 148.637 93.8774C148.451 93.8201 148.231 93.7695 147.981 93.7224C147.73 93.6752 147.449 93.6516 147.141 93.6516C146.633 93.6516 146.156 93.7358 145.709 93.9077C145.262 94.0796 144.877 94.3289 144.548 94.6625C144.22 94.9928 143.959 95.4005 143.77 95.879C143.58 96.3575 143.485 96.9068 143.485 97.5268C143.485 98.1468 143.567 98.6961 143.732 99.1746C143.898 99.6531 144.135 100.057 144.443 100.391C144.751 100.725 145.127 100.974 145.574 101.146C146.017 101.318 146.522 101.402 147.08 101.402C147.368 101.402 147.635 101.385 147.886 101.355C148.136 101.321 148.363 101.281 148.563 101.227C148.763 101.173 148.939 101.119 149.084 101.062C149.23 101.004 149.348 100.947 149.433 100.89L149.067 99.7879C148.901 99.8688 148.668 99.9597 148.366 100.057Z" fill="#A2A2A2"/>
<path d="M155.81 99.0398C155.509 98.6928 155.204 98.3693 154.889 98.066C154.578 97.7627 154.27 97.4965 153.968 97.2674C154.239 97.0045 154.517 96.7248 154.801 96.4317C155.085 96.1385 155.366 95.8453 155.644 95.5488C155.925 95.2523 156.196 94.9591 156.463 94.6659C156.727 94.3728 156.981 94.0897 157.215 93.8201H155.59C155.404 94.0257 155.194 94.2582 154.967 94.5177C154.737 94.7738 154.496 95.04 154.243 95.3163C153.989 95.5926 153.731 95.8622 153.474 96.1318C153.217 96.398 152.97 96.6507 152.733 96.8866V93.8235H151.379V101.244H152.733V97.9144C153.014 98.1064 153.295 98.3356 153.583 98.5984C153.87 98.8612 154.148 99.1409 154.415 99.4341C154.683 99.7273 154.94 100.031 155.184 100.344C155.427 100.657 155.644 100.957 155.83 101.244H157.431C157.201 100.873 156.951 100.499 156.673 100.125C156.395 99.7509 156.111 99.3869 155.81 99.0398Z" fill="#A2A2A2"/>
<path d="M164.334 97.1393C164.094 96.5395 163.857 95.97 163.62 95.4275C163.383 94.885 163.139 94.3492 162.889 93.8201H161.595C161.345 94.3492 161.101 94.885 160.864 95.4275C160.627 95.97 160.39 96.5395 160.15 97.1393C159.91 97.7391 159.666 98.376 159.416 99.0466C159.165 99.7172 158.901 100.448 158.62 101.24H160.028C160.13 100.954 160.231 100.667 160.336 100.378C160.441 100.088 160.543 99.7947 160.644 99.4948H163.792C163.894 99.7947 163.995 100.088 164.104 100.374C164.212 100.661 164.317 100.95 164.415 101.24H165.877C165.597 100.448 165.329 99.7172 165.075 99.0466C164.821 98.3726 164.574 97.7391 164.334 97.1393ZM160.99 98.403C161.22 97.7694 161.44 97.1797 161.65 96.6372C161.86 96.0947 162.049 95.633 162.215 95.2556C162.374 95.6196 162.56 96.0778 162.773 96.6271C162.987 97.1764 163.21 97.7694 163.44 98.403H160.99Z" fill="#A2A2A2"/>
<path d="M170.954 93.746C170.43 93.746 169.959 93.7965 169.536 93.8976C169.113 93.9987 168.754 94.147 168.456 94.3424C168.158 94.5379 167.928 94.7872 167.769 95.0871C167.61 95.387 167.529 95.7375 167.529 96.1351C167.529 96.6507 167.644 97.082 167.874 97.4291C168.104 97.7795 168.463 98.0424 168.951 98.221C168.822 98.3861 168.68 98.5849 168.524 98.814C168.368 99.0466 168.216 99.2959 168.06 99.5621C167.905 99.8283 167.752 100.108 167.603 100.391C167.451 100.678 167.312 100.957 167.184 101.237H168.626C168.754 100.981 168.89 100.721 169.028 100.462C169.167 100.202 169.309 99.9463 169.448 99.7003C169.587 99.4543 169.729 99.2218 169.875 99.0027C170.017 98.7837 170.162 98.5916 170.305 98.4198C170.389 98.4333 170.484 98.4434 170.585 98.4467C170.687 98.4501 170.782 98.4535 170.877 98.4535H171.662V101.237H173.016V93.9246C172.688 93.8538 172.336 93.8066 171.963 93.7797C171.581 93.7561 171.246 93.746 170.954 93.746ZM171.652 97.3415H171.059C170.731 97.3415 170.433 97.3246 170.173 97.2876C169.912 97.2505 169.688 97.1865 169.506 97.0955C169.323 97.0045 169.184 96.8764 169.086 96.7214C168.988 96.5664 168.94 96.3643 168.94 96.1216C168.94 95.8925 168.988 95.7004 169.086 95.542C169.184 95.3837 169.316 95.259 169.489 95.168C169.661 95.077 169.864 95.0096 170.095 94.9692C170.328 94.9287 170.579 94.9119 170.853 94.9119C171.134 94.9119 171.398 94.922 171.648 94.9456V97.3415H171.652Z" fill="#A2A2A2"/>
<path d="M183.235 99.0398C182.933 98.6928 182.629 98.3693 182.314 98.066C182.002 97.7627 181.694 97.4965 181.393 97.2674C181.664 97.0045 181.942 96.7248 182.226 96.4317C182.51 96.1385 182.791 95.8453 183.069 95.5488C183.35 95.2523 183.621 94.9591 183.888 94.6659C184.152 94.3728 184.406 94.0897 184.639 93.8201H183.015C182.828 94.0257 182.619 94.2582 182.392 94.5177C182.162 94.7738 181.921 95.04 181.667 95.3163C181.414 95.5926 181.156 95.8622 180.899 96.1318C180.642 96.398 180.395 96.6507 180.158 96.8866V93.8235H178.804V101.244H180.158V97.9144C180.439 98.1064 180.72 98.3356 181.007 98.5984C181.295 98.8612 181.573 99.1409 181.84 99.4341C182.107 99.7273 182.365 100.031 182.608 100.344C182.852 100.657 183.069 100.957 183.255 101.244H184.856C184.626 100.873 184.375 100.499 184.098 100.125C183.82 99.7509 183.536 99.3869 183.235 99.0398Z" fill="#A2A2A2"/>
<path d="M192.08 94.6322C191.755 94.3053 191.373 94.0594 190.936 93.8942C190.499 93.7291 190.036 93.6483 189.548 93.6483C189.061 93.6483 188.597 93.7291 188.16 93.8942C187.724 94.0594 187.338 94.3053 187.003 94.6322C186.671 94.9591 186.407 95.3668 186.214 95.8487C186.021 96.3306 185.923 96.8899 185.923 97.5234C185.923 98.1603 186.021 98.7197 186.214 99.2049C186.407 99.6902 186.668 100.095 186.992 100.421C187.317 100.748 187.703 100.991 188.143 101.156C188.583 101.321 189.051 101.402 189.548 101.402C190.046 101.402 190.509 101.321 190.946 101.156C191.383 100.991 191.765 100.748 192.09 100.421C192.415 100.098 192.676 99.6902 192.865 99.2049C193.055 98.7197 193.15 98.1603 193.15 97.5234C193.15 96.8899 193.052 96.3306 192.859 95.8487C192.666 95.3668 192.408 94.9624 192.08 94.6322ZM191.582 98.6321C191.481 98.9623 191.335 99.2454 191.146 99.4779C190.956 99.7104 190.723 99.889 190.452 100.017C190.178 100.145 189.873 100.209 189.538 100.209C189.193 100.209 188.885 100.145 188.614 100.017C188.343 99.889 188.11 99.707 187.92 99.4779C187.73 99.2454 187.585 98.9623 187.483 98.6321C187.382 98.2985 187.334 97.9312 187.334 97.5234C187.334 97.1157 187.385 96.7484 187.483 96.4215C187.585 96.0947 187.73 95.8116 187.92 95.5757C188.11 95.3399 188.34 95.1579 188.614 95.0298C188.885 94.9018 189.196 94.8378 189.538 94.8378C189.876 94.8378 190.181 94.9018 190.452 95.0298C190.723 95.1579 190.956 95.3399 191.146 95.569C191.335 95.8015 191.481 96.0846 191.582 96.4148C191.684 96.745 191.735 97.1157 191.735 97.5234C191.735 97.9312 191.681 98.3019 191.582 98.6321Z" fill="#A2A2A2"/>
<path d="M203.091 97.4224C203.044 96.7821 202.99 96.1587 202.932 95.5488C202.875 94.9389 202.81 94.3627 202.746 93.8201H201.524C201.365 94.0897 201.189 94.4233 200.996 94.8176C200.803 95.2118 200.603 95.6229 200.404 96.0543C200.204 96.4856 200.008 96.9236 199.811 97.3718C199.618 97.8166 199.439 98.2311 199.273 98.6085C199.107 98.2311 198.928 97.8166 198.731 97.3718C198.535 96.927 198.335 96.4856 198.136 96.0543C197.936 95.6229 197.74 95.2118 197.543 94.8176C197.347 94.4233 197.174 94.0931 197.015 93.8201H195.763C195.699 94.3323 195.634 94.8951 195.577 95.5016C195.519 96.1082 195.465 96.7349 195.418 97.3819C195.37 98.0289 195.326 98.6793 195.286 99.3364C195.245 99.9935 195.211 100.627 195.181 101.244H196.514C196.545 100.381 196.579 99.4914 196.619 98.5782C196.66 97.665 196.721 96.7788 196.802 95.9228C196.88 96.0812 196.975 96.2733 197.083 96.5058C197.191 96.7383 197.306 96.9843 197.428 97.2505C197.55 97.5134 197.675 97.7897 197.801 98.0761C197.926 98.3625 198.048 98.6388 198.166 98.9051C198.285 99.1713 198.393 99.424 198.495 99.6599C198.596 99.8958 198.681 100.095 198.752 100.26H199.764C199.835 100.095 199.923 99.8958 200.021 99.6666C200.119 99.4375 200.231 99.1847 200.35 98.9185C200.468 98.6523 200.59 98.376 200.715 98.0896C200.84 97.8031 200.966 97.5268 201.087 97.2606C201.209 96.9944 201.324 96.7451 201.433 96.5159C201.541 96.2868 201.632 96.0913 201.714 95.9262C201.795 96.7821 201.856 97.6684 201.893 98.5816C201.934 99.4948 201.968 100.384 201.998 101.247H203.332C203.301 100.634 203.267 100.004 203.227 99.3566C203.183 98.7029 203.139 98.0626 203.091 97.4224Z" fill="#A2A2A2"/>
<path d="M205.646 101.24H207.004V94.9759H210.186V101.24H211.543V93.8201H205.646V101.24Z" fill="#A2A2A2"/>
<path d="M218.956 97.1393C218.716 96.5395 218.479 95.97 218.242 95.4275C218.005 94.885 217.761 94.3492 217.511 93.8201H216.218C215.967 94.3492 215.723 94.885 215.486 95.4275C215.249 95.97 215.013 96.5395 214.772 97.1393C214.532 97.7391 214.288 98.376 214.038 99.0466C213.787 99.7172 213.523 100.448 213.242 101.24H214.65C214.752 100.954 214.853 100.667 214.958 100.378C215.063 100.088 215.165 99.7947 215.266 99.4948H218.414C218.516 99.7947 218.618 100.088 218.726 100.374C218.834 100.661 218.939 100.95 219.037 101.24H220.5C220.219 100.448 219.951 99.7172 219.697 99.0466C219.447 98.3726 219.196 97.7391 218.956 97.1393ZM215.612 98.403C215.842 97.7694 216.062 97.1797 216.272 96.6372C216.482 96.0947 216.671 95.633 216.837 95.2556C216.996 95.6196 217.182 96.0778 217.396 96.6271C217.609 97.1764 217.832 97.7694 218.062 98.403H215.612Z" fill="#A2A2A2"/>
<path d="M226.783 96.7855H223.543V93.8201H222.189V101.24H223.543V97.9514H226.783V101.24H228.137V93.8201H226.783V96.7855Z" fill="#A2A2A2"/>
<path d="M234.815 94.885C234.486 95.2961 234.155 95.7207 233.819 96.1655C233.488 96.6069 233.163 97.0517 232.851 97.4999C232.54 97.9447 232.262 98.3625 232.019 98.7467V93.8201H230.675V101.24H231.826C232.069 100.833 232.34 100.398 232.641 99.9294C232.943 99.4611 233.254 98.9893 233.576 98.5175C233.897 98.0424 234.226 97.5808 234.561 97.1359C234.896 96.6911 235.211 96.2868 235.512 95.9296V101.24H236.846V93.8201H235.739C235.454 94.12 235.146 94.4738 234.815 94.885Z" fill="#A2A2A2"/>
<path d="M242.624 93.746C242.1 93.746 241.629 93.7965 241.206 93.8976C240.783 93.9987 240.424 94.147 240.126 94.3424C239.828 94.5379 239.598 94.7872 239.439 95.0871C239.28 95.387 239.199 95.7375 239.199 96.1351C239.199 96.6507 239.314 97.082 239.544 97.4291C239.774 97.7795 240.133 98.0424 240.62 98.221C240.492 98.3861 240.35 98.5849 240.194 98.814C240.038 99.0466 239.886 99.2959 239.73 99.5621C239.575 99.8283 239.422 100.108 239.273 100.391C239.121 100.678 238.982 100.957 238.854 101.237H240.296C240.424 100.981 240.56 100.721 240.698 100.462C240.837 100.202 240.979 99.9463 241.118 99.7003C241.257 99.4543 241.399 99.2218 241.545 99.0027C241.687 98.7837 241.832 98.5916 241.974 98.4198C242.059 98.4333 242.154 98.4434 242.255 98.4467C242.357 98.4501 242.452 98.4535 242.546 98.4535H243.332V101.237H244.686V93.9246C244.357 93.8538 244.005 93.8066 243.633 93.7797C243.251 93.7561 242.919 93.746 242.624 93.746ZM243.325 97.3415H242.733C242.404 97.3415 242.106 97.3246 241.846 97.2876C241.585 97.2505 241.362 97.1865 241.179 97.0955C240.996 97.0045 240.857 96.8764 240.759 96.7214C240.661 96.5664 240.614 96.3643 240.614 96.1216C240.614 95.8925 240.661 95.7004 240.759 95.542C240.857 95.3837 240.989 95.259 241.162 95.168C241.335 95.077 241.538 95.0096 241.768 94.9692C242.002 94.9287 242.252 94.9119 242.526 94.9119C242.807 94.9119 243.071 94.922 243.322 94.9456V97.3415H243.325Z" fill="#A2A2A2"/>
<path d="M55.4732 87.9939C55.8456 86.5482 56.2213 85.0925 56.6072 83.63C56.9524 82.3159 63.0657 79.6302 63.0657 79.6302C63.0657 79.6302 69.1925 82.326 69.5479 83.6132C69.9372 85.0285 70.3264 86.5011 70.6988 87.9871L70.8206 88.4757H77.3502L77.1031 87.5154C76.0775 83.5323 75.0789 79.7818 74.1379 76.375C73.1935 72.9648 72.2694 69.7131 71.3893 66.7005C70.4991 63.6576 69.6088 60.7293 68.7389 57.9965C67.8689 55.2603 66.9584 52.5173 66.0275 49.835L65.8854 49.4239H60.4356L60.2934 49.8384C59.3659 52.5139 58.4554 55.2603 57.5854 57.9999C56.7155 60.7361 55.8253 63.6644 54.9384 66.7039C54.0583 69.7198 53.141 72.975 52.2135 76.3818C51.2826 79.7919 50.2942 83.5391 49.2686 87.5187L49.0215 88.4791H55.3514L55.4732 87.9939ZM61.468 64.6787C62.0434 62.6568 62.5782 60.8405 63.0623 59.2601C63.5294 60.7967 64.0575 62.5928 64.6397 64.6248C65.3471 67.1082 67.0362 72.7256 67.7911 75.573L63.0657 72.6515L58.3504 75.573C59.1019 72.729 60.7741 67.1285 61.468 64.6787Z" fill="url(#paint0_linear_302_4)"/>
<path d="M101.58 86.5617L101.915 86.2584L100.243 79.3437L99.691 79.7346C99.1088 80.1491 98.2659 80.5973 97.1895 81.0724C96.1334 81.534 94.7286 81.7699 93.0159 81.7699C91.6145 81.7699 90.4061 81.4532 89.421 80.8331C88.4428 80.2165 87.627 79.3404 86.9906 78.225C86.3475 77.0961 85.8634 75.728 85.552 74.1611C85.2338 72.5706 85.0747 70.7913 85.0747 68.8706C85.0747 66.714 85.2778 64.8033 85.684 63.1859C86.0801 61.5886 86.6386 60.2508 87.3427 59.2062C88.04 58.1717 88.8794 57.3832 89.834 56.8642C90.7987 56.3386 91.8582 56.0723 92.9786 56.0723C94.2987 56.0723 95.5376 56.3082 96.6615 56.7733C97.792 57.2416 98.6654 57.7336 99.2577 58.2425L99.8128 58.7176L101.654 51.7153L101.268 51.4154C101.079 51.2705 100.757 51.0312 100.3 50.6976C99.8162 50.3472 99.2272 50.0304 98.4995 49.7238C97.792 49.4272 96.9559 49.1543 96.0149 48.9184C95.057 48.6758 93.9806 48.5545 92.8161 48.5545C90.8799 48.5545 89.0351 49.0094 87.3359 49.9057C85.6299 50.8088 84.1236 52.15 82.8576 53.8955C81.595 55.641 80.5863 57.7943 79.8585 60.298C79.1341 62.795 78.7686 65.6963 78.7686 68.9211C78.7686 72.1359 79.0867 75.0271 79.713 77.514C80.3426 80.021 81.2633 82.181 82.448 83.9299C83.6361 85.6856 85.1086 87.0335 86.8214 87.9399C88.5172 88.8363 90.4534 89.2912 92.5792 89.2912C93.6556 89.2912 94.6813 89.2069 95.629 89.0418C96.5734 88.8767 97.44 88.6509 98.205 88.3712C98.9666 88.0916 99.6335 87.8018 100.189 87.5052C100.774 87.1885 101.231 86.8818 101.58 86.5617Z" fill="url(#paint1_linear_302_4)"/>
<path d="M122.821 88.4757H129.976L129.482 87.3772C128.626 85.4834 127.675 83.5593 126.656 81.6554C125.633 79.7515 124.547 77.8914 123.43 76.129C122.316 74.3734 121.162 72.6953 120.001 71.1452C119.002 69.8175 118.007 68.6111 117.032 67.5564C117.902 66.3905 118.796 65.1572 119.693 63.8834C120.742 62.3974 121.785 60.9046 122.817 59.3983C123.846 57.9021 124.865 56.3925 125.847 54.9098C126.835 53.417 127.773 51.9714 128.636 50.61L129.394 49.4171H121.998L121.842 49.6564C121.152 50.7078 120.383 51.8838 119.534 53.1845C118.691 54.4819 117.787 55.8365 116.856 57.2181C115.908 58.6199 114.954 60.0048 114.02 61.3325C113.39 62.2255 112.777 63.0882 112.185 63.9104V49.4171H106.119V88.469H112.185V72.2808C112.93 73.0491 113.685 73.9185 114.439 74.8721C115.485 76.193 116.514 77.605 117.489 79.0641C118.471 80.5299 119.419 82.0665 120.306 83.63C121.196 85.2037 121.988 86.7201 122.665 88.1421L122.821 88.4757Z" fill="url(#paint2_linear_302_4)"/>
<path d="M180.978 80.2266L183.053 88.4723H189.694L189.457 87.5187C187.87 81.1364 186.133 74.6598 184.298 68.2742C182.464 61.8953 180.524 55.6916 178.537 49.835L178.395 49.4171H172.911L172.769 49.835C170.779 55.6815 168.839 61.8885 167.008 68.2742C165.177 74.6699 163.427 81.1398 161.812 87.512L161.568 88.469H168.061L168.179 87.9736C168.788 85.4531 169.432 82.8449 170.092 80.2232C170.745 77.6286 171.422 75.0035 172.102 72.4189C172.776 69.8681 173.45 67.3812 174.113 65.0224C174.604 63.2735 175.081 61.6189 175.541 60.0824C176.019 61.6291 176.503 63.2937 176.994 65.0493C177.65 67.4081 178.321 69.895 178.984 72.4425C179.651 74.9934 180.314 77.5881 180.978 80.2266Z" fill="url(#paint3_linear_302_4)"/>
<path d="M216.855 77.7061C217.579 75.172 217.944 72.2168 217.944 68.9245C217.944 65.6256 217.572 62.677 216.834 60.1632C216.096 57.6427 215.088 55.4894 213.835 53.7641C212.579 52.0321 211.093 50.7179 209.411 49.8518C207.742 48.9926 205.952 48.5579 204.097 48.5579C202.238 48.5579 200.451 48.9926 198.782 49.8518C197.103 50.7179 195.604 52.0321 194.324 53.7574C193.045 55.4827 192.022 57.6393 191.281 60.1632C190.543 62.6804 190.171 65.6256 190.171 68.9245C190.171 72.2201 190.543 75.1754 191.281 77.7128C192.019 80.2536 193.031 82.4102 194.28 84.1153C195.533 85.8271 197.029 87.1346 198.721 87.9972C200.404 88.8565 202.211 89.2912 204.097 89.2912C205.982 89.2912 207.783 88.8565 209.452 87.9972C211.134 87.1312 212.62 85.8271 213.872 84.1153C215.128 82.4035 216.13 80.2468 216.855 77.7061ZM211.107 74.3296C210.758 75.9134 210.247 77.2747 209.594 78.3699C208.944 79.4583 208.142 80.3142 207.214 80.914C206.283 81.5172 205.22 81.8205 204.059 81.8205C202.871 81.8205 201.798 81.5139 200.867 80.914C199.936 80.3142 199.134 79.4583 198.484 78.3699C197.831 77.2747 197.32 75.9134 196.971 74.3296C196.616 72.7256 196.436 70.9059 196.436 68.9212C196.436 66.9398 196.616 65.1302 196.971 63.5397C197.32 61.9728 197.831 60.608 198.488 59.4926C199.138 58.3907 199.936 57.5247 200.867 56.9249C201.798 56.3217 202.871 56.0185 204.059 56.0185C205.22 56.0185 206.283 56.3251 207.214 56.9249C208.145 57.5247 208.944 58.3806 209.594 59.4691C210.247 60.5642 210.758 61.9256 211.107 63.5094C211.462 65.1167 211.642 66.9364 211.642 68.9178C211.642 70.9026 211.462 72.7222 211.107 74.3296Z" fill="url(#paint4_linear_302_4)"/>
<path d="M238.938 49.4239V64.4563H228.025V49.4239H221.959V88.4757H228.025V71.8124H238.938V88.4757H245V49.4239H238.938Z" fill="url(#paint5_linear_302_4)"/>
<path d="M152.91 87.9601L153.032 88.4487H159.561L159.314 87.4884C158.288 83.5053 157.29 79.7548 156.349 76.348C155.404 72.9379 154.48 69.6861 153.6 66.6735C152.71 63.6307 151.82 60.7024 150.95 57.9695C150.08 55.2333 149.169 52.4903 148.238 49.808L148.096 49.3969H142.647L142.504 49.8114C141.577 52.487 140.666 55.2333 139.796 57.9729C138.926 60.7091 138.036 63.6374 137.149 66.6769C136.269 69.6928 135.352 72.948 134.424 76.3548C133.494 79.7649 132.505 83.5121 131.48 87.4917L131.232 88.4521H137.562L137.688 87.9702C138.06 86.5246 138.436 85.0689 138.821 83.6064C139.167 82.2922 145.28 79.6066 145.28 79.6066C145.28 79.6066 151.407 82.3024 151.762 83.5896C152.148 85.0015 152.537 86.4707 152.91 87.9601ZM145.277 72.6245L140.561 75.546C141.316 72.6986 142.985 67.1015 143.682 64.6517C144.258 62.6299 144.793 60.8136 145.277 59.2332C145.744 60.7698 146.272 62.5658 146.854 64.5978C147.561 67.0813 149.251 72.6986 150.005 75.546L145.277 72.6245Z" fill="url(#paint6_linear_302_4)"/>
<path d="M27.35 74.2386L26.3684 5.59713L22.5366 0L18.7082 5.59713L17.7266 74.2386L22.5366 53.4642L27.35 74.2386Z" fill="url(#paint7_linear_302_4)"/>
<path d="M30.739 96.4114L22.5372 60.362L14.3389 96.4114C16.8167 95.3533 20.1441 93.5472 22.5406 91.3164C25.103 93.3854 28.2612 95.3567 30.739 96.4114ZM20.2287 88.8565C19.9613 89.1059 19.6702 89.3552 19.3554 89.6079L22.5372 75.6202L25.6954 89.4967C25.3434 89.2339 25.0015 88.9677 24.6698 88.7015L22.3815 86.8582L20.2287 88.8565Z" fill="url(#paint8_linear_302_4)"/>
<path d="M33.809 98.7736C29.5981 98.7736 25.7088 97.0955 22.5709 93.6887H22.5371H22.5032C19.3687 97.0921 15.4794 98.7736 11.2651 98.7736C7.05087 98.7736 3.16494 96.7585 0.0270797 93.3517H0L1.52662 101.52H17.9098L19.5685 124.448C18.448 125.324 17.727 126.682 17.727 128.212C17.727 130.857 19.8799 133 22.5371 133C25.1943 133 27.3471 130.857 27.3471 128.212C27.3471 126.685 26.6261 125.327 25.5057 124.448L27.1643 101.52H43.5475L45.0741 93.3517H45.0403C41.9092 96.7551 38.0199 98.7736 33.809 98.7736Z" fill="url(#paint9_linear_302_4)"/>
</g>
<defs>
<linearGradient id="paint0_linear_302_4" x1="63.1858" y1="49.4239" x2="63.1858" y2="88.4791" gradientUnits="userSpaceOnUse">
<stop stop-color="#333333" stop-opacity="0.1"/>
<stop offset="0.5" stop-color="#333333" stop-opacity="0.5"/>
<stop offset="1" stop-color="#333333" stop-opacity="0.7"/>
</linearGradient>
<linearGradient id="paint1_linear_302_4" x1="90.3417" y1="48.5545" x2="90.3417" y2="89.2912" gradientUnits="userSpaceOnUse">
<stop stop-color="#333333" stop-opacity="0.1"/>
<stop offset="0.5" stop-color="#333333" stop-opacity="0.5"/>
<stop offset="1" stop-color="#333333" stop-opacity="0.7"/>
</linearGradient>
<linearGradient id="paint2_linear_302_4" x1="118.048" y1="49.4171" x2="118.048" y2="88.4757" gradientUnits="userSpaceOnUse">
<stop stop-color="#333333" stop-opacity="0.1"/>
<stop offset="0.5" stop-color="#333333" stop-opacity="0.5"/>
<stop offset="1" stop-color="#333333" stop-opacity="0.7"/>
</linearGradient>
<linearGradient id="paint3_linear_302_4" x1="175.631" y1="49.4171" x2="175.631" y2="88.4723" gradientUnits="userSpaceOnUse">
<stop stop-color="#333333" stop-opacity="0.1"/>
<stop offset="0.5" stop-color="#333333" stop-opacity="0.5"/>
<stop offset="1" stop-color="#333333" stop-opacity="0.7"/>
</linearGradient>
<linearGradient id="paint4_linear_302_4" x1="204.058" y1="48.5579" x2="204.058" y2="89.2912" gradientUnits="userSpaceOnUse">
<stop stop-color="#333333" stop-opacity="0.1"/>
<stop offset="0.5" stop-color="#333333" stop-opacity="0.5"/>
<stop offset="1" stop-color="#333333" stop-opacity="0.7"/>
</linearGradient>
<linearGradient id="paint5_linear_302_4" x1="233.48" y1="49.4239" x2="233.48" y2="88.4757" gradientUnits="userSpaceOnUse">
<stop stop-color="#333333" stop-opacity="0.1"/>
<stop offset="0.5" stop-color="#333333" stop-opacity="0.5"/>
<stop offset="1" stop-color="#333333" stop-opacity="0.7"/>
</linearGradient>
<linearGradient id="paint6_linear_302_4" x1="145.397" y1="49.3969" x2="145.397" y2="88.4521" gradientUnits="userSpaceOnUse">
<stop stop-color="#333333" stop-opacity="0.1"/>
<stop offset="0.5" stop-color="#333333" stop-opacity="0.5"/>
<stop offset="1" stop-color="#333333" stop-opacity="0.7"/>
</linearGradient>
<linearGradient id="paint7_linear_302_4" x1="22.5383" y1="0" x2="22.5383" y2="74.2386" gradientUnits="userSpaceOnUse">
<stop stop-color="#333333" stop-opacity="0.1"/>
<stop offset="0.265625" stop-color="#333333" stop-opacity="0.6"/>
<stop offset="0.75" stop-color="#333333" stop-opacity="0.1"/>
<stop offset="1" stop-color="#333333" stop-opacity="0.2"/>
</linearGradient>
<linearGradient id="paint8_linear_302_4" x1="22.5389" y1="60.362" x2="22.5389" y2="96.4114" gradientUnits="userSpaceOnUse">
<stop stop-color="#333333" stop-opacity="0.2"/>
<stop offset="1" stop-color="#333333" stop-opacity="0.85"/>
</linearGradient>
<linearGradient id="paint9_linear_302_4" x1="22.5371" y1="93.3517" x2="22.5371" y2="133" gradientUnits="userSpaceOnUse">
<stop stop-color="#333333"/>
<stop offset="1" stop-color="#333333" stop-opacity="0.2"/>
</linearGradient>
<clipPath id="clip0_302_4">
<rect width="245" height="133" fill="white"/>
</clipPath>
<clipPath id="clip1_302_4">
<rect width="245" height="133" fill="white"/>
</clipPath>
</defs>
</svg>
