<svg width="25" height="21" viewBox="0 0 25 21" fill="none" xmlns="http://www.w3.org/2000/svg">
<g id="&#240;&#159;&#166;&#134; icon &#34;envelope&#34;">
<path id="Vector" d="M22.5 0.5C23.163 0.5 23.7989 0.763392 24.2678 1.23223C24.7366 1.70107 25 2.33696 25 3V18C25 18.663 24.7366 19.2989 24.2678 19.7678C23.7989 20.2366 23.163 20.5 22.5 20.5H2.5C1.83696 20.5 1.20107 20.2366 0.732233 19.7678C0.263392 19.2989 0 18.663 0 18V3C0 1.625 1.125 0.5 2.5 0.5H22.5ZM17.0375 11.875L25 18V15.5L18.6 10.625L25 5.5V3L12.5 13L0 3V5.5L6.4 10.625L0 15.5V18L7.9625 11.875L12.5 15.5L17.0375 11.875Z" fill="white"/>
</g>
</svg>
